<?xml version="1.0" encoding="UTF-8" standalone="no"?>
<!-- Created with Inkscape (http://www.inkscape.org/) -->

<svg
   xmlns:dc="http://purl.org/dc/elements/1.1/"
   xmlns:cc="http://creativecommons.org/ns#"
   xmlns:rdf="http://www.w3.org/1999/02/22-rdf-syntax-ns#"
   xmlns:svg="http://www.w3.org/2000/svg"
   xmlns="http://www.w3.org/2000/svg"
   xmlns:sodipodi="http://sodipodi.sourceforge.net/DTD/sodipodi-0.dtd"
   xmlns:inkscape="http://www.inkscape.org/namespaces/inkscape"
   width="1024"
   height="1024"
   viewBox="0 0 1024 1024"
   id="svg2"
   version="1.1"
   inkscape:version="0.91 r13725"
   sodipodi:docname="lightningstorm_project_logo.svg"
   inkscape:export-filename="lightningstorm_project_logo.png"
   inkscape:export-xdpi="90"
   inkscape:export-ydpi="90">
  <defs
     id="defs4" />
  <sodipodi:namedview
     id="base"
     pagecolor="#ffffff"
     bordercolor="#666666"
     borderopacity="1.0"
     inkscape:pageopacity="0.0"
     inkscape:pageshadow="2"
     inkscape:zoom="0.8203125"
     inkscape:cx="277.94286"
     inkscape:cy="512"
     inkscape:document-units="px"
     inkscape:current-layer="layer1"
     showgrid="false"
     units="px"
     inkscape:window-width="1536"
     inkscape:window-height="1019"
     inkscape:window-x="0"
     inkscape:window-y="0"
     inkscape:window-maximized="0" />
  <metadata
     id="metadata7">
    <rdf:RDF>
      <cc:Work
         rdf:about="">
        <dc:format>image/svg+xml</dc:format>
        <dc:type
           rdf:resource="http://purl.org/dc/dcmitype/StillImage" />
        <dc:title />
      </cc:Work>
    </rdf:RDF>
  </metadata>
  <g
     inkscape:label="Layer 1"
     inkscape:groupmode="layer"
     id="layer1"
     transform="translate(0,-28.362161)">
    <g
       id="g4146"
       style="fill:#808080">
      <circle
         r="223.08571"
         cy="423.33356"
         cx="572.95239"
         id="path3336"
         style="fill:#808080;fill-rule:evenodd;stroke:none;stroke-width:1px;stroke-linecap:butt;stroke-linejoin:miter;stroke-opacity:1" />
      <circle
         style="fill:#808080;fill-rule:evenodd;stroke:none;stroke-width:1px;stroke-linecap:butt;stroke-linejoin:miter;stroke-opacity:1"
         id="circle4138"
         cx="330.36194"
         cy="405.04785"
         r="223.08571" />
      <circle
         r="223.08571"
         cy="356.28595"
         cx="700.95245"
         id="circle4140"
         style="fill:#808080;fill-rule:evenodd;stroke:none;stroke-width:1px;stroke-linecap:butt;stroke-linejoin:miter;stroke-opacity:1" />
      <circle
         style="fill:#808080;fill-rule:evenodd;stroke:none;stroke-width:1px;stroke-linecap:butt;stroke-linejoin:miter;stroke-opacity:1"
         id="circle4142"
         cx="490.05722"
         cy="283.14307"
         r="223.08571" />
    </g>
    <path
       style="fill:#90b4b4;fill-rule:evenodd;stroke:none;stroke-width:1px;stroke-linecap:butt;stroke-linejoin:miter;stroke-opacity:1;fill-opacity:1"
       d="M 490.05714,645.20026 359.61905,886.57168 466.89524,828.0574 419.35238,1031.6384 563.2,709.80978 453.48571,779.29549 Z"
       id="path4144"
       inkscape:connector-curvature="0" />
    <path
       style="fill:#00ffff;fill-opacity:1;fill-rule:evenodd;stroke:none;stroke-width:1px;stroke-linecap:butt;stroke-linejoin:miter;stroke-opacity:1"
       d="m 806.15916,621.14625 -23.70492,53.8748 c 0,0 -0.86199,37.06587 19.82593,37.49687 20.68793,0.431 21.54992,-36.20387 21.54992,-36.20387 z"
       id="path4152"
       inkscape:connector-curvature="0" />
    <path
       inkscape:connector-curvature="0"
       id="path4154"
       d="m 722.04487,683.31768 -23.70492,53.8748 c 0,0 -0.86199,37.06587 19.82593,37.49687 20.68793,0.431 21.54992,-36.20387 21.54992,-36.20387 z"
       style="fill:#00ffff;fill-opacity:1;fill-rule:evenodd;stroke:none;stroke-width:1px;stroke-linecap:butt;stroke-linejoin:miter;stroke-opacity:1" />
    <path
       style="fill:#00ffff;fill-opacity:1;fill-rule:evenodd;stroke:none;stroke-width:1px;stroke-linecap:butt;stroke-linejoin:miter;stroke-opacity:1"
       d="m 283.18773,693.07006 -23.70492,53.8748 c 0,0 -0.86199,37.06587 19.82593,37.49687 20.68793,0.431 21.54992,-36.20387 21.54992,-36.20387 z"
       id="path4156"
       inkscape:connector-curvature="0" />
    <path
       inkscape:connector-curvature="0"
       id="path4158"
       d="m 202.73059,645.5272 -23.70492,53.8748 c 0,0 -0.86199,37.06587 19.82593,37.49687 20.68793,0.431 21.54992,-36.20387 21.54992,-36.20387 z"
       style="fill:#00ffff;fill-opacity:1;fill-rule:evenodd;stroke:none;stroke-width:1px;stroke-linecap:butt;stroke-linejoin:miter;stroke-opacity:1" />
    <path
       style="fill:#00ffff;fill-opacity:1;fill-rule:evenodd;stroke:none;stroke-width:1px;stroke-linecap:butt;stroke-linejoin:miter;stroke-opacity:1"
       d="m 222.23535,836.91768 -23.70492,53.8748 c 0,0 -0.86199,37.06587 19.82593,37.49687 20.68793,0.431 21.54992,-36.20387 21.54992,-36.20387 z"
       id="path4160"
       inkscape:connector-curvature="0" />
    <path
       inkscape:connector-curvature="0"
       id="path4162"
       d="m 306.34964,916.15578 -23.70492,53.8748 c 0,0 -0.86199,37.06582 19.82593,37.49682 20.68793,0.431 21.54992,-36.20382 21.54992,-36.20382 z"
       style="fill:#00ffff;fill-opacity:1;fill-rule:evenodd;stroke:none;stroke-width:1px;stroke-linecap:butt;stroke-linejoin:miter;stroke-opacity:1" />
    <path
       style="fill:#00ffff;fill-opacity:1;fill-rule:evenodd;stroke:none;stroke-width:1px;stroke-linecap:butt;stroke-linejoin:miter;stroke-opacity:1"
       d="m 622.08297,677.22245 -23.70492,53.8748 c 0,0 -0.86199,37.06582 19.82593,37.49682 20.68793,0.431 21.54992,-36.20382 21.54992,-36.20382 z"
       id="path4164"
       inkscape:connector-curvature="0" />
    <path
       inkscape:connector-curvature="0"
       id="path4166"
       d="m 579.4163,861.29864 -23.70492,53.8748 c 0,0 -0.86199,37.06582 19.82593,37.49682 20.68793,0.431 21.54992,-36.20382 21.54992,-36.20382 z"
       style="fill:#00ffff;fill-opacity:1;fill-rule:evenodd;stroke:none;stroke-width:1px;stroke-linecap:butt;stroke-linejoin:miter;stroke-opacity:1" />
    <path
       style="fill:#00ffff;fill-opacity:1;fill-rule:evenodd;stroke:none;stroke-width:1px;stroke-linecap:butt;stroke-linejoin:miter;stroke-opacity:1"
       d="m 663.53059,930.78435 -23.70492,53.8748 c 0,0 -0.86199,37.06585 19.82593,37.49685 20.68793,0.431 21.54992,-36.20385 21.54992,-36.20385 z"
       id="path4168"
       inkscape:connector-curvature="0" />
    <path
       inkscape:connector-curvature="0"
       id="path4170"
       d="m 759.83535,855.2034 -23.70492,53.8748 c 0,0 -0.86199,37.06585 19.82593,37.49685 20.68793,0.431 21.54992,-36.20385 21.54992,-36.20385 z"
       style="fill:#00ffff;fill-opacity:1;fill-rule:evenodd;stroke:none;stroke-width:1px;stroke-linecap:butt;stroke-linejoin:miter;stroke-opacity:1" />
    <path
       style="fill:#00ffff;fill-opacity:1;fill-rule:evenodd;stroke:none;stroke-width:1px;stroke-linecap:butt;stroke-linejoin:miter;stroke-opacity:1"
       d="m 836.63535,916.15578 -23.70492,53.8748 c 0,0 -0.86199,37.06582 19.82593,37.49682 20.68793,0.431 21.54992,-36.20382 21.54992,-36.20382 z"
       id="path4172"
       inkscape:connector-curvature="0" />
    <path
       inkscape:connector-curvature="0"
       id="path4174"
       d="m 826.88297,766.21292 -23.70492,53.8748 c 0,0 -0.86199,37.06582 19.82593,37.49682 20.68793,0.431 21.54992,-36.20382 21.54992,-36.20382 z"
       style="fill:#00ffff;fill-opacity:1;fill-rule:evenodd;stroke:none;stroke-width:1px;stroke-linecap:butt;stroke-linejoin:miter;stroke-opacity:1" />
    <path
       style="fill:#00ffff;fill-opacity:1;fill-rule:evenodd;stroke:none;stroke-width:1px;stroke-linecap:butt;stroke-linejoin:miter;stroke-opacity:1"
       d="m 665.96868,782.06054 -23.70492,53.8748 c 0,0 -0.86199,37.06582 19.82593,37.49682 20.68793,0.431 21.54992,-36.20382 21.54992,-36.20382 z"
       id="path4176"
       inkscape:connector-curvature="0" />
    <text
       xml:space="preserve"
       style="font-style:normal;font-variant:normal;font-weight:bold;font-stretch:normal;font-size:281.25px;line-height:100%;font-family:sans-serif;-inkscape-font-specification:'sans-serif, Bold';text-align:center;letter-spacing:0px;word-spacing:0px;writing-mode:lr-tb;text-anchor:middle;fill:#ffffff;fill-opacity:1;stroke:#000000;stroke-width:10.76858616;stroke-linecap:butt;stroke-linejoin:miter;stroke-miterlimit:4;stroke-dasharray:none;stroke-opacity:1"
       x="520.2019"
       y="475.50922"
       id="text4178"
       sodipodi:linespacing="100%"><tspan
         sodipodi:role="line"
         id="tspan4180"
         x="520.2019"
         y="475.50922"
         style="font-style:normal;font-variant:normal;font-weight:bold;font-stretch:normal;font-size:281.25px;line-height:100%;font-family:sans-serif;-inkscape-font-specification:'sans-serif, Bold';text-align:center;writing-mode:lr-tb;text-anchor:middle;stroke-width:10.76858616;stroke-miterlimit:4;stroke-dasharray:none">L S</tspan></text>
  </g>
</svg>
